<?xml version="1.0" encoding="UTF-8" standalone="no"?>
<!-- Created with Inkscape (http://www.inkscape.org/) -->

<svg
   xmlns:dc="http://purl.org/dc/elements/1.1/"
   xmlns:cc="http://creativecommons.org/ns#"
   xmlns:rdf="http://www.w3.org/1999/02/22-rdf-syntax-ns#"
   xmlns:svg="http://www.w3.org/2000/svg"
   xmlns="http://www.w3.org/2000/svg"
   xmlns:xlink="http://www.w3.org/1999/xlink"
   xmlns:sodipodi="http://sodipodi.sourceforge.net/DTD/sodipodi-0.dtd"
   xmlns:inkscape="http://www.inkscape.org/namespaces/inkscape"
   width="24"
   height="24"
   viewBox="0 0 24.000001 24"
   id="svg2"
   version="1.1"
   inkscape:version="0.91 r13725"
   sodipodi:docname="puplugin.svg"
   inkscape:export-filename="/home/svoboond/.qgis2/python/plugins/puplugin/puplugin.svg.png"
   inkscape:export-xdpi="240"
   inkscape:export-ydpi="240">
  <defs
     id="defs4">
    <linearGradient
       inkscape:collect="always"
       id="linearGradient4151">
      <stop
         style="stop-color:#d45500;stop-opacity:1;"
         offset="0"
         id="stop4153" />
      <stop
         style="stop-color:#d45500;stop-opacity:0;"
         offset="1"
         id="stop4155" />
    </linearGradient>
    <linearGradient
       inkscape:collect="always"
       xlink:href="#linearGradient4151"
       id="linearGradient4157"
       x1="28.589962"
       y1="10.857841"
       x2="23.056421"
       y2="16.621946"
       gradientUnits="userSpaceOnUse"
       gradientTransform="translate(0.26899158,0.07685474)" />
  </defs>
  <sodipodi:namedview
     id="base"
     pagecolor="#ffffff"
     bordercolor="#666666"
     borderopacity="1.0"
     inkscape:pageopacity="0.0"
     inkscape:pageshadow="2"
     inkscape:zoom="26.023121"
     inkscape:cx="11.402022"
     inkscape:cy="12.055755"
     inkscape:document-units="px"
     inkscape:current-layer="layer1"
     showgrid="false"
     units="px"
     inkscape:window-width="1366"
     inkscape:window-height="719"
     inkscape:window-x="0"
     inkscape:window-y="25"
     inkscape:window-maximized="1" />
  <metadata
     id="metadata7">
    <rdf:RDF>
      <cc:Work
         rdf:about="">
        <dc:format>image/svg+xml</dc:format>
        <dc:type
           rdf:resource="http://purl.org/dc/dcmitype/StillImage" />
        <dc:title />
      </cc:Work>
    </rdf:RDF>
  </metadata>
  <g
     inkscape:groupmode="layer"
     id="layer2"
     inkscape:label="background"
     style="display:inline">
    <path
       style="fill:none;fill-rule:evenodd;stroke:#000000;stroke-width:0.70000004;stroke-linecap:round;stroke-linejoin:round;stroke-miterlimit:4;stroke-dasharray:none;stroke-opacity:1"
       d="M 26.073904,1.240918 21.748466,1.1600687 19.242137,0.71539738 17.099631,-0.17394512 13.461412,-2.1547533"
       id="path4475"
       inkscape:connector-curvature="0" />
    <path
       style="fill:none;fill-rule:evenodd;stroke:#000000;stroke-width:0.70000005;stroke-linecap:round;stroke-linejoin:round;stroke-miterlimit:4;stroke-dasharray:none;stroke-opacity:1"
       d="M 22.63949,8.5097642 C 24.499025,8.2267916 22.04702,8.2178447 22.04702,8.2178447 l -0.07797,-0.033872 -1.38147,1.4468196 -3.503923,3.0627687 -2.26378,1.745292 -3.376177,3.308829 -6.0566683,8.734682"
       id="path4477"
       inkscape:connector-curvature="0"
       sodipodi:nodetypes="cccccccc" />
    <path
       style="fill:none;fill-rule:evenodd;stroke:#000000;stroke-width:0.70000005;stroke-linecap:round;stroke-linejoin:round;stroke-miterlimit:4;stroke-dasharray:none;stroke-opacity:1"
       d="m 5.9843677,-1.2773947 4.3029893,2.07364133 3.221988,1.48772317 2.296696,1.2471725 -3.861751,5.782642 -4.0953537,3.9551457 -2.2024258,2.515357 -1.4992279,2.521829 -5.567098,7.161157"
       id="path4481"
       inkscape:connector-curvature="0"
       sodipodi:nodetypes="ccccccccc" />
    <path
       style="fill:none;fill-rule:evenodd;stroke:#000000;stroke-width:0.70000005;stroke-linecap:round;stroke-linejoin:miter;stroke-miterlimit:4;stroke-dasharray:none;stroke-opacity:1"
       d="m 11.404064,18.031927 11.247481,4.916308 5.699877,3.072275"
       id="path4485"
       inkscape:connector-curvature="0"
       sodipodi:nodetypes="ccc" />
    <path
       style="opacity:1;fill:url(#linearGradient4157);fill-opacity:1;fill-rule:evenodd;stroke:#000000;stroke-width:0.70000005;stroke-linecap:round;stroke-linejoin:round;stroke-miterlimit:4;stroke-dasharray:none;stroke-opacity:1"
       d="m 23.301704,13.856845 -5.978459,6.652174"
       id="path4491"
       inkscape:connector-curvature="0"
       sodipodi:nodetypes="cc" />
    <path
       style="fill:none;fill-rule:evenodd;stroke:#000000;stroke-width:0.70000004;stroke-linecap:round;stroke-linejoin:round;stroke-miterlimit:4;stroke-dasharray:none;stroke-opacity:1"
       d="M 11.412778,9.4061381 -2.1829315,0.71539714"
       id="path4149"
       inkscape:connector-curvature="0"
       sodipodi:nodetypes="cc" />
  </g>
  <g
     inkscape:label="Layer 1"
     inkscape:groupmode="layer"
     id="layer1"
     transform="translate(0,-1028.3622)">
    <g
       style="font-style:normal;font-variant:normal;font-weight:normal;font-stretch:normal;font-size:15.00000095px;line-height:125%;font-family:'Star Jedi';-inkscape-font-specification:'Star Jedi';letter-spacing:0px;word-spacing:0px;fill:#d25500;fill-opacity:1;stroke:#000000;stroke-width:0.70000004;stroke-linecap:butt;stroke-linejoin:round;stroke-miterlimit:4;stroke-dasharray:none;stroke-opacity:1"
       id="text3336">
      <path
         d="m 2.5973354,1045.7037 0,-7.4267 -2.1972658,0 0,-3.1494 9.0820318,0 q 1.2744146,0.1172 2.1093756,0.6591 0.834961,0.542 1.186523,1.5088 0.322266,1.1719 0.263672,1.7578 -0.05859,0.586 -0.234375,1.0987 -0.175781,0.5127 -0.966797,1.1865 -0.791016,0.6738 -2.1093751,0.8716 l -3.3105471,0 0,3.4936 -3.8232424,0 z m 3.8232424,-7.9394 0,1.9482 2.6660158,0 q 0.2124023,0 0.4614258,-0.1538 0.2490235,-0.1611 0.2636719,-0.7983 -0.036621,-0.6079 -0.300293,-0.7984 -0.2563477,-0.1977 -0.4321289,-0.1977 l -2.6586916,0 z"
         style="stroke-width:0.70000004;stroke-miterlimit:4;stroke-dasharray:none"
         id="path4178" />
      <path
         d="m 16.659837,1035.1276 0,6.2548 q -0.04395,1.0694 0.410156,1.4869 0.454101,0.4174 1.420898,0.4467 0.776368,-0.015 1.296387,-0.4541 0.52002,-0.4394 0.490723,-1.4795 l 0,-6.2548 3.442383,0 0,6.2036 q -0.02197,1.3183 -0.439453,2.1094 -0.410157,0.7836 -1.047364,1.311 -0.629883,0.5273 -1.589355,0.8203 -0.952149,0.293 -2.124024,0.3223 -0.974121,-0.022 -1.984863,-0.2637 -1.003418,-0.249 -1.757813,-0.7764 -0.74707,-0.5273 -1.157226,-1.355 -0.402833,-0.8276 -0.402833,-2.1606 l 0,-6.2109 3.442384,0 z m 6.086426,-2.5782 -3.38379,0 -1.289062,2.3291 4.672852,-2.3291 z"
         style="stroke-width:0.70000004;stroke-miterlimit:4;stroke-dasharray:none"
         id="path4180" />
    </g>
  </g>
</svg>
